<?xml version="1.0" encoding="utf-8"?>
<!-- Generator: Adobe Illustrator 13.0.0, SVG Export Plug-In . SVG Version: 6.00 Build 14948)  -->
<!DOCTYPE svg PUBLIC "-//W3C//DTD SVG 1.0//EN" "http://www.w3.org/TR/2001/REC-SVG-20010904/DTD/svg10.dtd">
<svg version="1.0" id="Ebene_1" xmlns="http://www.w3.org/2000/svg" xmlns:xlink="http://www.w3.org/1999/xlink" x="0px" y="0px"
	 width="160.167px" height="106.833px" viewBox="0 0 160.167 106.833" enable-background="new 0 0 160.167 106.833"
	 xml:space="preserve">
<g>
	<path fill-rule="evenodd" clip-rule="evenodd" fill="#009036" d="M120.299,37.87h4.114c4.028,0.135,7.417-0.633,10.168-2.306
		c2.75-1.672,4.183-5.061,4.296-10.166c-0.085-4.122-1.341-7.023-3.765-8.707c-2.424-1.683-5.504-2.496-9.239-2.438h-5.573V37.87
		L120.299,37.87z M120.299,77.246h4.776c4.708,0.168,8.66-0.567,11.859-2.206c3.198-1.639,4.862-5.194,4.992-10.663
		c-0.135-5.401-1.788-8.895-4.958-10.481c-3.171-1.586-7.046-2.293-11.626-2.122h-5.042V77.246L120.299,77.246z M105.198,0.35
		h20.674c4.434-0.109,9.01,0.314,13.729,1.271c4.719,0.956,8.723,3.098,12.011,6.424c3.289,3.327,5.004,8.492,5.147,15.496
		c-0.074,4.377-0.869,7.887-2.384,10.529s-3.312,4.686-5.386,6.133c-2.075,1.447-3.987,2.567-5.738,3.361
		c2.165,0.53,4.518,1.545,7.06,3.047c2.542,1.501,4.738,3.755,6.588,6.76c1.851,3.005,2.82,7.028,2.909,12.068
		c-0.089,7.287-1.663,12.788-4.72,16.504c-3.058,3.717-7.067,6.203-12.026,7.46s-10.335,1.839-16.129,1.747l-7.833-0.004
		l2.519-10.065l0.183-0.91c0.052-0.329,0.08-0.599,0.083-0.811c0.017-0.536-0.149-0.955-0.497-1.258
		c-0.348-0.304-0.978-0.458-1.889-0.464h-17.081V3.131c-0.025-1.159,0.158-1.92,0.546-2.285
		C103.352,0.482,104.097,0.317,105.198,0.35L105.198,0.35z"/>
	<path fill="#009036" d="M118.873,94.193c0.069-0.279,0.13-0.583,0.182-0.911c0.053-0.328,0.08-0.598,0.083-0.811
		c0.017-0.535-0.149-0.955-0.497-1.258s-0.978-0.458-1.89-0.463H84.8V18.626c0.024-1.16-0.158-1.922-0.547-2.287
		c-0.389-0.364-1.134-0.53-2.235-0.497H69.699c-1.101-0.033-1.846,0.133-2.235,0.497c-0.389,0.365-0.571,1.127-0.547,2.287v85.235
		c-0.024,1.159,0.158,1.92,0.547,2.285c0.389,0.364,1.134,0.53,2.235,0.497h43.738c0.959,0.033,1.627-0.099,2.005-0.397
		c0.378-0.298,0.683-0.96,0.912-1.986L118.873,94.193L118.873,94.193z"/>
	<path fill-rule="evenodd" clip-rule="evenodd" fill="#009036" d="M25.548,79.727c0.069-0.279,0.064,0.619,0.116,0.291
		c0.053-0.328-0.265,0.387-0.262,0.175c0.017-0.536-0.986-0.045-1.333-0.349c-0.348-0.303-0.95-1.623-1.862-1.628
		c0,0-21.896-3.933-21.871-2.772v12.94c-0.025,1.159,0.157,1.92,0.546,2.285s1.134,0.529,2.235,0.497h17.329
		c0.958,0.033,1.626-0.1,2.005-0.397s0.683-0.96,0.912-1.986L25.548,79.727L25.548,79.727z"/>
	<path fill-rule="evenodd" clip-rule="evenodd" fill="#009036" d="M18.22,77.246h4.776c4.708,0.168,8.66-0.567,11.858-2.206
		c3.198-1.639,4.863-5.194,4.993-10.663c-0.136-5.401-1.789-8.895-4.959-10.481c-3.171-1.586-7.046-2.293-11.626-2.122H18.22V77.246
		L18.22,77.246z M18.22,37.87h4.114c4.028,0.135,7.417-0.633,10.168-2.306c2.75-1.672,4.183-5.061,4.296-10.166
		c-0.085-4.122-1.34-7.023-3.765-8.707c-2.424-1.683-5.504-2.496-9.239-2.438H18.22V37.87L18.22,37.87z M3.12,0.35h20.674
		c4.434-0.109,9.01,0.314,13.729,1.271c4.719,0.956,8.722,3.098,12.011,6.424c3.289,3.327,5.004,8.492,5.147,15.496
		c-0.074,4.377-0.869,7.887-2.384,10.529c-1.516,2.642-3.311,4.686-5.386,6.133c-2.075,1.447-3.987,2.567-5.738,3.361
		c2.165,0.53,4.518,1.545,7.06,3.047c2.542,1.501,4.738,3.755,6.589,6.76c1.85,3.005,2.82,7.028,2.909,12.068
		c-0.089,7.287-1.663,12.788-4.72,16.504c-3.058,3.717-7.067,6.203-12.026,7.46c-4.959,1.257-10.335,1.839-16.129,1.747
		l-7.833-0.004l2.519-10.065l0.183-0.91c0.052-0.329,0.08-0.599,0.083-0.811c0.017-0.536-0.149-0.955-0.497-1.258
		c-0.348-0.304-0.978-0.458-1.889-0.464H0.338V3.131c-0.025-1.159,0.158-1.92,0.546-2.285C1.273,0.482,2.019,0.317,3.12,0.35
		L3.12,0.35z"/>
</g>
</svg>
